<?xml version="1.0" encoding="UTF-8"?>
<!DOCTYPE svg PUBLIC "-//W3C//DTD SVG 1.1//EN" "http://www.w3.org/Graphics/SVG/1.1/DTD/svg11.dtd">
<svg xmlns="http://www.w3.org/2000/svg" version="1.1" width="500px" height="500px" style="shape-rendering:geometricPrecision; text-rendering:geometricPrecision; image-rendering:optimizeQuality; fill-rule:evenodd; clip-rule:evenodd" xmlns:xlink="http://www.w3.org/1999/xlink">
<g><path style="opacity:0.974" fill="#000101" d="M 119.5,179.5 C 119.821,181.048 120.821,181.715 122.5,181.5C 123.473,181.987 124.473,182.487 125.5,183C 123.253,184.277 121.253,185.777 119.5,187.5C 116.32,189.255 113.32,191.255 110.5,193.5C 113.168,198.15 116.168,202.483 119.5,206.5C 122.948,216.063 127.948,224.729 134.5,232.5C 136.988,236.806 139.488,241.139 142,245.5C 142.667,246.833 143.333,246.833 144,245.5C 154.249,228 164.749,210.667 175.5,193.5C 171.777,190.449 167.777,187.782 163.5,185.5C 162.571,184.685 161.571,183.852 160.5,183C 163.592,182.146 166.259,180.646 168.5,178.5C 187.622,173.075 206.789,166.742 226,159.5C 226.5,159.833 227,160.167 227.5,160.5C 199.927,206.231 171.761,251.565 143,296.5C 134.56,283.939 126.393,271.272 118.5,258.5C 114.277,250.393 109.777,242.393 105,234.5C 104.329,233.748 103.496,233.414 102.5,233.5C 93.5823,217.323 83.9156,201.656 73.5,186.5C 73.4452,183.386 72.1119,181.052 69.5,179.5C 66.1217,172.621 62.1217,166.121 57.5,160C 58.1667,159.833 58.8333,159.667 59.5,159.5C 79.3331,166.754 99.3331,173.421 119.5,179.5 Z M 163.5,185.5 C 167.777,187.782 171.777,190.449 175.5,193.5C 164.749,210.667 154.249,228 144,245.5C 143.333,246.833 142.667,246.833 142,245.5C 139.488,241.139 136.988,236.806 134.5,232.5C 135.89,231.101 136.89,229.434 137.5,227.5C 146.665,213.843 155.331,199.843 163.5,185.5 Z M 119.5,187.5 C 122.242,189.208 124.575,191.375 126.5,194C 124.688,197.126 123.021,200.292 121.5,203.5C 120.599,204.29 119.932,205.29 119.5,206.5C 116.168,202.483 113.168,198.15 110.5,193.5C 113.32,191.255 116.32,189.255 119.5,187.5 Z"/></g>
<g><path style="opacity:0.93" fill="#030303" d="M 234.5,166.5 C 236.833,166.5 239.167,166.5 241.5,166.5C 242.618,173.205 243.951,179.872 245.5,186.5C 247.219,179.904 248.552,173.238 249.5,166.5C 251.833,166.5 254.167,166.5 256.5,166.5C 254.66,179.873 252.493,193.207 250,206.5C 247,207.833 244,207.833 241,206.5C 238.507,193.207 236.34,179.873 234.5,166.5 Z"/></g>
<g><path style="opacity:0.963" fill="#040505" d="M 333.5,166.5 C 335.833,166.5 338.167,166.5 340.5,166.5C 341.448,173.238 342.781,179.904 344.5,186.5C 346.263,179.92 347.597,173.254 348.5,166.5C 350.833,166.5 353.167,166.5 355.5,166.5C 353.66,179.873 351.493,193.207 349,206.5C 346,207.833 343,207.833 340,206.5C 337.507,193.207 335.34,179.873 333.5,166.5 Z"/></g>
<g><path style="opacity:1" fill="#3bb5fb" d="M 69.5,179.5 C 72.1119,181.052 73.4452,183.386 73.5,186.5C 70.0604,188.055 66.7271,189.888 63.5,192C 62.4829,193.049 62.3162,194.216 63,195.5C 73.2509,211.666 83.2509,228 93,244.5C 93.7175,245.451 94.5509,245.617 95.5,245C 97.0303,242.648 98.6969,240.481 100.5,238.5C 106.251,246.328 111.251,254.661 115.5,263.5C 108.887,274.773 101.887,285.773 94.5,296.5C 65.9687,251.133 37.6354,205.633 9.5,160C 29.5847,165.972 49.5847,172.472 69.5,179.5 Z"/></g>
<g><path style="opacity:1" fill="#3cb5fa" d="M 168.5,178.5 C 166.259,180.646 163.592,182.146 160.5,183C 161.571,183.852 162.571,184.685 163.5,185.5C 155.331,199.843 146.665,213.843 137.5,227.5C 134.5,223.5 131.5,219.5 128.5,215.5C 126.668,211.164 124.335,207.164 121.5,203.5C 123.021,200.292 124.688,197.126 126.5,194C 124.575,191.375 122.242,189.208 119.5,187.5C 121.253,185.777 123.253,184.277 125.5,183C 124.473,182.487 123.473,181.987 122.5,181.5C 122.167,180.833 121.833,180.167 121.5,179.5C 139.998,172.665 158.665,165.998 177.5,159.5C 178.167,159.833 178.833,160.167 179.5,160.5C 175.822,166.528 172.156,172.528 168.5,178.5 Z"/></g>
<g><path style="opacity:1" fill="#49b3ef" d="M 369.5,207.5 C 373.443,204.458 374.943,200.458 374,195.5C 373.185,197.623 372.185,199.623 371,201.5C 368.987,202.343 366.82,202.343 364.5,201.5C 365.791,201.737 366.791,201.404 367.5,200.5C 368.493,191.682 368.827,182.682 368.5,173.5C 369.822,173.33 370.989,173.663 372,174.5C 372.5,173 373,171.5 373.5,170C 373.095,169.055 372.428,168.388 371.5,168C 369.167,167.333 366.833,167.333 364.5,168C 365.167,168.333 365.833,168.667 366.5,169C 364.809,170.405 362.976,171.572 361,172.5C 360.667,171.833 360.333,171.167 360,170.5C 358.403,181.427 358.069,192.427 359,203.5C 361.434,205.762 364.268,207.095 367.5,207.5C 364.813,207.664 362.146,207.497 359.5,207C 358.299,206.097 357.465,204.931 357,203.5C 356.333,192.5 356.333,181.5 357,170.5C 358.877,167.008 361.877,165.674 366,166.5C 368.167,166.667 370.333,166.833 372.5,167C 373.667,167.5 374.5,168.333 375,169.5C 375.667,181.5 375.667,193.5 375,205.5C 373.556,207.155 371.722,207.822 369.5,207.5 Z M 364.5,173.5 C 365.833,173.5 367.167,173.5 368.5,173.5C 368.827,182.682 368.493,191.682 367.5,200.5C 366.5,200.5 365.5,200.5 364.5,200.5C 364.5,191.5 364.5,182.5 364.5,173.5 Z"/></g>
<g><path style="opacity:1" fill="#3cb5fb" d="M 411.5,177.5 C 410.506,186.986 410.173,196.652 410.5,206.5C 408.5,206.5 406.5,206.5 404.5,206.5C 404.828,195.321 404.495,184.321 403.5,173.5C 401.5,173.5 399.5,173.5 397.5,173.5C 397.5,171.167 397.5,168.833 397.5,166.5C 404.167,166.5 410.833,166.5 417.5,166.5C 417.5,168.833 417.5,171.167 417.5,173.5C 415.5,173.5 413.5,173.5 411.5,173.5C 411.5,174.833 411.5,176.167 411.5,177.5 Z"/></g>
<g><path style="opacity:1" fill="#3cb5fa" d="M 258.5,167.5 C 260.5,167.5 262.5,167.5 264.5,167.5C 264.5,180.5 264.5,193.5 264.5,206.5C 262.833,206.5 261.167,206.5 259.5,206.5C 259.828,195.986 259.494,185.653 258.5,175.5C 257.746,172.922 257.746,170.256 258.5,167.5 Z"/></g>
<g><path style="opacity:1" fill="#3fb5f8" d="M 320.5,192.5 C 319.883,192.611 319.383,192.944 319,193.5C 318.501,197.821 318.334,202.154 318.5,206.5C 316.833,206.5 315.167,206.5 313.5,206.5C 313.5,194.5 313.5,182.5 313.5,170.5C 313.511,168.983 314.177,167.816 315.5,167C 320.167,166.333 324.833,166.333 329.5,167C 330.126,167.75 330.626,168.584 331,169.5C 331.5,182.162 331.667,194.829 331.5,207.5C 329.167,207.5 326.833,207.5 324.5,207.5C 324.828,202.125 324.495,196.792 323.5,191.5C 322.583,192.127 321.583,192.461 320.5,192.5 Z M 320.5,173.5 C 321.833,173.5 323.167,173.5 324.5,173.5C 324.665,176.518 324.498,179.518 324,182.5C 323,183.167 322,183.833 321,184.5C 320.501,180.848 320.335,177.182 320.5,173.5 Z"/></g>
<g><path style="opacity:1" fill="#3ab5fc" d="M 368.5,173.5 C 367.167,173.5 365.833,173.5 364.5,173.5C 363.167,182.833 363.167,192.167 364.5,201.5C 366.82,202.343 368.987,202.343 371,201.5C 372.185,199.623 373.185,197.623 374,195.5C 374.943,200.458 373.443,204.458 369.5,207.5C 368.833,207.5 368.167,207.5 367.5,207.5C 364.268,207.095 361.434,205.762 359,203.5C 358.069,192.427 358.403,181.427 360,170.5C 360.333,171.167 360.667,171.833 361,172.5C 362.976,171.572 364.809,170.405 366.5,169C 365.833,168.667 365.167,168.333 364.5,168C 366.833,167.333 369.167,167.333 371.5,168C 372.428,168.388 373.095,169.055 373.5,170C 373,171.5 372.5,173 372,174.5C 370.989,173.663 369.822,173.33 368.5,173.5 Z"/></g>
<g><path style="opacity:1" fill="#3ab6fc" d="M 387.5,175.5 C 386.833,183.705 385.999,192.039 385,200.5C 383.544,193.531 382.211,193.865 381,201.5C 380.5,189.838 380.333,178.171 380.5,166.5C 382.588,166.135 384.921,166.135 387.5,166.5C 387.5,169.5 387.5,172.5 387.5,175.5 Z"/></g>
<g><path style="opacity:0.733" fill="#134f74" d="M 119.5,179.5 C 120.167,179.5 120.833,179.5 121.5,179.5C 121.833,180.167 122.167,180.833 122.5,181.5C 120.821,181.715 119.821,181.048 119.5,179.5 Z"/></g>
<g><path style="opacity:1" fill="#44b5f7" d="M 280.5,181.5 C 282.467,181.739 284.301,181.406 286,180.5C 286.5,188.827 286.666,197.16 286.5,205.5C 286.389,206.117 286.056,206.617 285.5,207C 280.833,207.667 276.167,207.667 271.5,207C 267.787,201.044 269.12,196.877 275.5,194.5C 276.466,196.396 276.799,198.396 276.5,200.5C 277.833,200.5 279.167,200.5 280.5,200.5C 280.665,196.818 280.499,193.152 280,189.5C 276.912,191.294 273.746,192.961 270.5,194.5C 269.335,186.187 269.168,177.853 270,169.5C 270.5,168.333 271.333,167.5 272.5,167C 276.833,166.333 281.167,166.333 285.5,167C 287.922,169.003 288.755,171.503 288,174.5C 285.573,175.781 283.073,176.781 280.5,177.5C 280.5,176.167 280.5,174.833 280.5,173.5C 279.167,173.5 277.833,173.5 276.5,173.5C 276.183,176.572 276.516,179.572 277.5,182.5C 278.417,181.873 279.417,181.539 280.5,181.5 Z"/></g>
<g><path style="opacity:0.295" fill="#60add7" d="M 364.5,173.5 C 364.5,182.5 364.5,191.5 364.5,200.5C 365.5,200.5 366.5,200.5 367.5,200.5C 366.791,201.404 365.791,201.737 364.5,201.5C 363.167,192.167 363.167,182.833 364.5,173.5 Z"/></g>
<g><path style="opacity:1" fill="#44b4f6" d="M 290.5,166.5 C 297.167,166.5 303.833,166.5 310.5,166.5C 311.833,168.833 311.833,171.167 310.5,173.5C 308.5,173.5 306.5,173.5 304.5,173.5C 304.5,184.833 304.5,196.167 304.5,207.5C 301.833,207.5 299.167,207.5 296.5,207.5C 296.5,196.167 296.5,184.833 296.5,173.5C 290.466,174.393 288.466,172.06 290.5,166.5 Z"/></g>
<g><path style="opacity:1" fill="#52b1e6" d="M 286.5,205.5 C 286.666,197.16 286.5,188.827 286,180.5C 284.301,181.406 282.467,181.739 280.5,181.5C 282.608,179.941 284.941,178.608 287.5,177.5C 288.665,186.147 288.832,194.814 288,203.5C 287.722,204.416 287.222,205.082 286.5,205.5 Z"/></g>
<g><path style="opacity:0.487" fill="#51afe2" d="M 403.5,173.5 C 404.495,184.321 404.828,195.321 404.5,206.5C 406.5,206.5 408.5,206.5 410.5,206.5C 410.173,196.652 410.506,186.986 411.5,177.5C 411.5,187.5 411.5,197.5 411.5,207.5C 408.833,207.5 406.167,207.5 403.5,207.5C 403.5,196.167 403.5,184.833 403.5,173.5 Z"/></g>
<g><path style="opacity:1" fill="#47b3f0" d="M 380.5,166.5 C 380.333,178.171 380.5,189.838 381,201.5C 382.211,193.865 383.544,193.531 385,200.5C 385.999,192.039 386.833,183.705 387.5,175.5C 387.5,183.833 387.5,192.167 387.5,200.5C 390.187,200.336 392.854,200.503 395.5,201C 396.423,203.041 396.756,205.208 396.5,207.5C 390.833,207.5 385.167,207.5 379.5,207.5C 379.171,193.656 379.504,179.99 380.5,166.5 Z"/></g>
<g><path style="opacity:0.973" fill="#60afe0" d="M 258.5,167.5 C 260.607,166.532 262.941,166.198 265.5,166.5C 265.5,180.167 265.5,193.833 265.5,207.5C 263.167,207.5 260.833,207.5 258.5,207.5C 258.5,196.833 258.5,186.167 258.5,175.5C 259.494,185.653 259.828,195.986 259.5,206.5C 261.167,206.5 262.833,206.5 264.5,206.5C 264.5,193.5 264.5,180.5 264.5,167.5C 262.5,167.5 260.5,167.5 258.5,167.5 Z"/></g>
<g><path style="opacity:1" fill="#5ab0e4" d="M 313.5,170.5 C 313.5,182.5 313.5,194.5 313.5,206.5C 315.167,206.5 316.833,206.5 318.5,206.5C 318.334,202.154 318.501,197.821 319,193.5C 319.383,192.944 319.883,192.611 320.5,192.5C 320.5,197.5 320.5,202.5 320.5,207.5C 317.833,207.5 315.167,207.5 312.5,207.5C 312.171,194.989 312.505,182.655 313.5,170.5 Z"/></g>
<g><path style="opacity:1" fill="#045967" d="M 121.5,203.5 C 124.335,207.164 126.668,211.164 128.5,215.5C 126.147,213.899 123.98,211.899 122,209.5C 121.505,207.527 121.338,205.527 121.5,203.5 Z"/></g>
<g><path style="opacity:1" fill="#0d5454" d="M 121.5,203.5 C 121.338,205.527 121.505,207.527 122,209.5C 123.98,211.899 126.147,213.899 128.5,215.5C 131.5,219.5 134.5,223.5 137.5,227.5C 136.89,229.434 135.89,231.101 134.5,232.5C 127.948,224.729 122.948,216.063 119.5,206.5C 119.932,205.29 120.599,204.29 121.5,203.5 Z"/></g>
<g><path style="opacity:1" fill="#0b5657" d="M 102.5,233.5 C 103.496,233.414 104.329,233.748 105,234.5C 109.777,242.393 114.277,250.393 118.5,258.5C 117.89,260.434 116.89,262.101 115.5,263.5C 111.251,254.661 106.251,246.328 100.5,238.5C 100.893,236.716 101.559,235.05 102.5,233.5 Z"/></g>
<g><path style="opacity:1" fill="#3cb6fa" d="M 395.5,248.5 C 400.511,248.334 405.511,248.501 410.5,249C 411.823,249.816 412.489,250.983 412.5,252.5C 412.829,258.206 412.495,263.872 411.5,269.5C 407.35,271.076 403.35,272.909 399.5,275C 400.467,279.401 400.8,283.901 400.5,288.5C 398.833,288.5 397.167,288.5 395.5,288.5C 395.5,275.167 395.5,261.833 395.5,248.5 Z M 402.5,255.5 C 403.5,255.5 404.5,255.5 405.5,255.5C 405.665,258.85 405.498,262.183 405,265.5C 403.989,266.337 402.822,266.67 401.5,266.5C 401.244,262.731 401.577,259.064 402.5,255.5 Z"/></g>
<g><path style="opacity:1" fill="#50b3ea" d="M 199.5,288.5 C 199.701,285.492 200.034,282.492 200.5,279.5C 200.558,276.953 199.891,274.62 198.5,272.5C 200.401,266.387 201.068,260.053 200.5,253.5C 199.5,253.5 198.5,253.5 197.5,253.5C 197.5,252.167 197.5,250.833 197.5,249.5C 193.167,249.5 188.833,249.5 184.5,249.5C 184.186,262.913 184.519,276.246 185.5,289.5C 183.518,276.208 182.851,262.541 183.5,248.5C 188.844,248.334 194.177,248.501 199.5,249C 200.701,249.903 201.535,251.069 202,252.5C 202.667,263.5 202.667,274.5 202,285.5C 201.623,286.942 200.79,287.942 199.5,288.5 Z M 194.5,255.5 C 194.5,264.5 194.5,273.5 194.5,282.5C 193.5,282.5 192.5,282.5 191.5,282.5C 191.091,274.292 190.758,265.959 190.5,257.5C 191.32,255.889 192.654,255.222 194.5,255.5 Z"/></g>
<g><path style="opacity:1" fill="#41b8f9" d="M 282.5,248.5 C 286.643,249.017 290.643,249.017 294.5,248.5C 296.693,248.326 298.527,248.993 300,250.5C 300.863,253.269 301.363,256.102 301.5,259C 301.479,269.171 301.146,279.338 300.5,289.5C 298.167,289.5 295.833,289.5 293.5,289.5C 293.5,278.167 293.5,266.833 293.5,255.5C 292.167,255.5 290.833,255.5 289.5,255.5C 289.5,266.833 289.5,278.167 289.5,289.5C 287.167,289.5 284.833,289.5 282.5,289.5C 282.439,275.684 282.439,262.017 282.5,248.5 Z"/></g>
<g><path style="opacity:1" fill="#3db5fa" d="M 389.5,251.5 C 389.979,263.994 389.479,276.327 388,288.5C 387.374,286.009 386.541,286.009 385.5,288.5C 384.833,277.341 384.167,266.341 383.5,255.5C 382.167,255.5 380.833,255.5 379.5,255.5C 380.144,267.216 379.478,278.549 377.5,289.5C 376.081,288.549 374.415,288.216 372.5,288.5C 372.5,276.833 372.5,265.167 372.5,253.5C 371.448,253.649 370.448,253.483 369.5,253C 371.618,251.918 373.618,250.751 375.5,249.5C 379.446,248.473 383.446,248.306 387.5,249C 388.756,249.417 389.423,250.25 389.5,251.5 Z"/></g>
<g><path style="opacity:1" fill="#4eb2ec" d="M 456.5,289.5 C 456.393,277.802 455.726,266.135 454.5,254.5C 453.914,254.709 453.414,255.043 453,255.5C 452.5,266.828 452.333,278.162 452.5,289.5C 450.522,278.549 449.856,267.216 450.5,255.5C 449.167,255.5 447.833,255.5 446.5,255.5C 447.144,267.216 446.478,278.549 444.5,289.5C 444.667,278.162 444.5,266.828 444,255.5C 443,254.833 442,254.167 441,253.5C 440.5,265.162 440.333,276.829 440.5,288.5C 441.791,288.263 442.791,288.596 443.5,289.5C 442.06,290.363 440.726,290.363 439.5,289.5C 438.501,275.85 438.167,262.183 438.5,248.5C 444.16,249.651 449.826,249.818 455.5,249C 456.126,249.75 456.626,250.584 457,251.5C 457.827,264.34 457.66,277.007 456.5,289.5 Z"/></g>
<g><path style="opacity:1" fill="#39b5fd" d="M 456.5,289.5 C 455.167,289.5 453.833,289.5 452.5,289.5C 452.333,278.162 452.5,266.828 453,255.5C 453.414,255.043 453.914,254.709 454.5,254.5C 455.726,266.135 456.393,277.802 456.5,289.5 Z"/></g>
<g><path style="opacity:1" fill="#38b6fe" d="M 444.5,289.5 C 444.167,289.5 443.833,289.5 443.5,289.5C 442.791,288.596 441.791,288.263 440.5,288.5C 440.333,276.829 440.5,265.162 441,253.5C 442,254.167 443,254.833 444,255.5C 444.5,266.828 444.667,278.162 444.5,289.5 Z"/></g>
<g><path style="opacity:1" fill="#4db2ec" d="M 375.5,249.5 C 373.618,250.751 371.618,251.918 369.5,253C 370.448,253.483 371.448,253.649 372.5,253.5C 372.5,265.167 372.5,276.833 372.5,288.5C 374.415,288.216 376.081,288.549 377.5,289.5C 375.5,289.5 373.5,289.5 371.5,289.5C 371.5,278.167 371.5,266.833 371.5,255.5C 370.041,255.433 368.708,255.766 367.5,256.5C 366.088,254.77 366.422,253.27 368.5,252C 367.124,249.457 365.957,249.291 365,251.5C 364.586,251.043 364.086,250.709 363.5,250.5C 362.501,263.149 362.168,275.816 362.5,288.5C 363.833,288.5 365.167,288.5 366.5,288.5C 366.173,278.319 366.506,268.319 367.5,258.5C 367.543,268.526 367.543,278.86 367.5,289.5C 365.167,289.5 362.833,289.5 360.5,289.5C 360.333,276.829 360.5,264.162 361,251.5C 361.5,250.333 362.333,249.5 363.5,249C 367.554,248.306 371.554,248.473 375.5,249.5 Z"/></g>
<g><path style="opacity:1" fill="#54b2e4" d="M 216.5,271.5 C 217.048,269.468 218.381,268.468 220.5,268.5C 220.5,267.167 220.5,265.833 220.5,264.5C 218.833,264.5 217.167,264.5 215.5,264.5C 222.391,258.409 224.391,260.076 221.5,269.5C 219.925,270.456 218.258,271.123 216.5,271.5 Z"/></g>
<g><path style="opacity:1" fill="#40b6f8" d="M 240.5,261.5 C 241.5,261.5 242.5,261.5 243.5,261.5C 243.5,269.833 243.5,278.167 243.5,286.5C 243.586,287.496 243.252,288.329 242.5,289C 237.5,289.667 232.5,289.667 227.5,289C 223.969,282.93 225.469,278.763 232,276.5C 233.319,278.25 233.819,280.25 233.5,282.5C 234.5,282.5 235.5,282.5 236.5,282.5C 236.67,280.152 237.003,277.818 237.5,275.5C 237.523,273.933 237.023,272.6 236,271.5C 232.801,273.883 229.301,275.55 225.5,276.5C 225.334,268.16 225.5,259.827 226,251.5C 226.833,250.667 227.667,249.833 228.5,249C 232.833,248.333 237.167,248.333 241.5,249C 246.128,254.011 245.128,257.511 238.5,259.5C 237.996,256.658 236.329,255.325 233.5,255.5C 233.335,258.518 233.502,261.518 234,264.5C 235.993,263.086 238.16,262.086 240.5,261.5 Z"/></g>
<g><path style="opacity:1" fill="#41b8f8" d="M 215.5,264.5 C 217.167,264.5 218.833,264.5 220.5,264.5C 220.5,265.833 220.5,267.167 220.5,268.5C 218.381,268.468 217.048,269.468 216.5,271.5C 215.828,272.267 214.995,272.934 214,273.5C 213.502,276.482 213.335,279.482 213.5,282.5C 216.5,282.5 219.5,282.5 222.5,282.5C 222.5,284.833 222.5,287.167 222.5,289.5C 217.167,289.5 211.833,289.5 206.5,289.5C 206.61,280.151 206.277,270.818 205.5,261.5C 205.113,256.92 206.113,252.753 208.5,249C 213.155,248.501 217.821,248.334 222.5,248.5C 222.5,250.833 222.5,253.167 222.5,255.5C 219.5,255.5 216.5,255.5 213.5,255.5C 212.945,259.012 213.612,262.012 215.5,264.5 Z"/></g>
<g><path style="opacity:0.535" fill="#68acd6" d="M 243.5,286.5 C 243.5,278.167 243.5,269.833 243.5,261.5C 242.5,261.5 241.5,261.5 240.5,261.5C 241.261,260.609 242.261,259.942 243.5,259.5C 244.822,268.658 244.822,277.658 243.5,286.5 Z"/></g>
<g><path style="opacity:1" fill="#41b5f7" d="M 419.5,248.5 C 423.846,248.334 428.179,248.501 432.5,249C 433.701,249.903 434.535,251.069 435,252.5C 435.5,264.829 435.667,277.162 435.5,289.5C 432.833,289.5 430.167,289.5 427.5,289.5C 427.666,284.156 427.499,278.823 427,273.5C 426,274.167 425,274.833 424,275.5C 423.501,280.155 423.334,284.821 423.5,289.5C 421.167,289.5 418.833,289.5 416.5,289.5C 416.333,276.829 416.5,264.162 417,251.5C 417.698,250.309 418.531,249.309 419.5,248.5 Z M 424.5,255.5 C 425.5,255.5 426.5,255.5 427.5,255.5C 427.665,258.518 427.498,261.518 427,264.5C 426.311,265.357 425.478,266.023 424.5,266.5C 424.076,262.68 424.076,259.014 424.5,255.5 Z"/></g>
<g><path style="opacity:1" fill="#41b5f8" d="M 275.5,263.5 C 276.824,267.107 277.491,271.107 277.5,275.5C 277.443,280.215 277.11,284.882 276.5,289.5C 271.489,289.666 266.489,289.499 261.5,289C 260.874,288.25 260.374,287.416 260,286.5C 259.333,274.833 259.333,263.167 260,251.5C 260.5,250.333 261.333,249.5 262.5,249C 266.833,248.333 271.167,248.333 275.5,249C 280.526,256.092 278.859,260.592 270.5,262.5C 270.5,260.167 270.5,257.833 270.5,255.5C 269.167,255.5 267.833,255.5 266.5,255.5C 266.5,264.5 266.5,273.5 266.5,282.5C 267.833,282.5 269.167,282.5 270.5,282.5C 269.664,277.172 269.164,271.839 269,266.5C 270.993,265.086 273.16,264.086 275.5,263.5 Z"/></g>
<g><path style="opacity:1" fill="#51b1eb" d="M 250.5,248.5 C 250.398,261.722 250.398,275.055 250.5,288.5C 251.833,288.5 253.167,288.5 254.5,288.5C 254.175,280.648 254.508,272.982 255.5,265.5C 255.5,273.5 255.5,281.5 255.5,289.5C 253.167,289.5 250.833,289.5 248.5,289.5C 247.851,275.459 248.518,261.792 250.5,248.5 Z"/></g>
<g><path style="opacity:0.247" fill="#64add5" d="M 275.5,263.5 C 276.209,262.596 277.209,262.263 278.5,262.5C 279.138,271.895 278.471,280.895 276.5,289.5C 277.11,284.882 277.443,280.215 277.5,275.5C 277.491,271.107 276.824,267.107 275.5,263.5 Z"/></g>
<g><path style="opacity:0.827" fill="#5ab4e8" d="M 389.5,251.5 C 390.495,263.989 390.829,276.656 390.5,289.5C 388.167,289.5 385.833,289.5 383.5,289.5C 383.5,278.167 383.5,266.833 383.5,255.5C 384.167,266.341 384.833,277.341 385.5,288.5C 386.541,286.009 387.374,286.009 388,288.5C 389.479,276.327 389.979,263.994 389.5,251.5 Z"/></g>
<g><path style="opacity:1" fill="#3bb5fd" d="M 250.5,248.5 C 252.167,248.5 253.833,248.5 255.5,248.5C 255.5,254.167 255.5,259.833 255.5,265.5C 254.508,272.982 254.175,280.648 254.5,288.5C 253.167,288.5 251.833,288.5 250.5,288.5C 250.398,275.055 250.398,261.722 250.5,248.5 Z"/></g>
<g><path style="opacity:1" fill="#39b6fd" d="M 367.5,256.5 C 367.5,257.167 367.5,257.833 367.5,258.5C 366.506,268.319 366.173,278.319 366.5,288.5C 365.167,288.5 363.833,288.5 362.5,288.5C 362.168,275.816 362.501,263.149 363.5,250.5C 364.086,250.709 364.586,251.043 365,251.5C 365.957,249.291 367.124,249.457 368.5,252C 366.422,253.27 366.088,254.77 367.5,256.5 Z"/></g>
<g><path style="opacity:0.994" fill="#3cb7fb" d="M 199.5,288.5 C 195.03,289.486 190.363,289.819 185.5,289.5C 184.519,276.246 184.186,262.913 184.5,249.5C 188.833,249.5 193.167,249.5 197.5,249.5C 197.5,250.833 197.5,252.167 197.5,253.5C 198.5,253.5 199.5,253.5 200.5,253.5C 201.068,260.053 200.401,266.387 198.5,272.5C 199.891,274.62 200.558,276.953 200.5,279.5C 200.034,282.492 199.701,285.492 199.5,288.5 Z M 194.5,255.5 C 194.5,264.5 194.5,273.5 194.5,282.5C 193.5,282.5 192.5,282.5 191.5,282.5C 191.091,274.292 190.758,265.959 190.5,257.5C 191.32,255.889 192.654,255.222 194.5,255.5 Z"/></g>
<g><path style="opacity:0.224" fill="#63b4dd" d="M 194.5,255.5 C 195.658,264.657 195.824,273.991 195,283.5C 193.244,284.985 192.077,284.652 191.5,282.5C 192.5,282.5 193.5,282.5 194.5,282.5C 194.5,273.5 194.5,264.5 194.5,255.5 Z"/></g>
<g><path style="opacity:0.882" fill="#57b3e7" d="M 395.5,248.5 C 395.5,261.833 395.5,275.167 395.5,288.5C 397.167,288.5 398.833,288.5 400.5,288.5C 400.8,283.901 400.467,279.401 399.5,275C 403.35,272.909 407.35,271.076 411.5,269.5C 412.495,263.872 412.829,258.206 412.5,252.5C 413.817,258.346 413.817,264.346 412.5,270.5C 408.756,272.121 405.256,274.121 402,276.5C 401.501,280.821 401.334,285.154 401.5,289.5C 399.326,289.92 397.326,289.92 395.5,289.5C 394.174,275.672 394.174,262.006 395.5,248.5 Z M 402.5,255.5 C 401.577,259.064 401.244,262.731 401.5,266.5C 402.822,266.67 403.989,266.337 405,265.5C 405.498,262.183 405.665,258.85 405.5,255.5C 404.5,255.5 403.5,255.5 402.5,255.5 Z"/></g>
<g><path style="opacity:1" fill="#44b4f4" d="M 318.5,248.5 C 323.179,248.334 327.845,248.501 332.5,249C 336.213,254.956 334.88,259.123 328.5,261.5C 327.534,259.604 327.201,257.604 327.5,255.5C 326.167,255.5 324.833,255.5 323.5,255.5C 323.5,264.5 323.5,273.5 323.5,282.5C 324.833,282.5 326.167,282.5 327.5,282.5C 327.215,280.712 327.548,279.045 328.5,277.5C 330.413,276.627 332.247,275.627 334,274.5C 334.374,275.416 334.874,276.25 335.5,277C 334.707,280.411 334.207,283.911 334,287.5C 333.5,288 333,288.5 332.5,289C 327.833,289.667 323.167,289.667 318.5,289C 317.299,288.097 316.465,286.931 316,285.5C 315.333,274.5 315.333,263.5 316,252.5C 316.662,251.016 317.496,249.683 318.5,248.5 Z"/></g>
<g><path style="opacity:1" fill="#40b5f7" d="M 340.5,248.5 C 345.179,248.334 349.845,248.501 354.5,249C 355.126,249.75 355.626,250.584 356,251.5C 356.667,263.5 356.667,275.5 356,287.5C 355.5,288 355,288.5 354.5,289C 349.833,289.667 345.167,289.667 340.5,289C 339.299,288.097 338.465,286.931 338,285.5C 337.333,274.5 337.333,263.5 338,252.5C 338.662,251.016 339.496,249.683 340.5,248.5 Z M 345.5,255.5 C 346.833,255.5 348.167,255.5 349.5,255.5C 349.5,264.5 349.5,273.5 349.5,282.5C 348.167,282.5 346.833,282.5 345.5,282.5C 345.5,273.5 345.5,264.5 345.5,255.5 Z"/></g>
<g><path style="opacity:1" fill="#44b4f5" d="M 461.5,248.5 C 464.167,248.5 466.833,248.5 469.5,248.5C 469.334,253.844 469.501,259.177 470,264.5C 471,263.833 472,263.167 473,262.5C 473.499,257.845 473.666,253.179 473.5,248.5C 475.833,248.5 478.167,248.5 480.5,248.5C 480.667,261.171 480.5,273.838 480,286.5C 479.626,287.416 479.126,288.25 478.5,289C 473.5,289.667 468.5,289.667 463.5,289C 459.637,282.337 461.637,278.837 469.5,278.5C 469.5,279.833 469.5,281.167 469.5,282.5C 470.833,282.5 472.167,282.5 473.5,282.5C 473.823,278.774 473.489,275.107 472.5,271.5C 469.01,273.683 465.343,275.35 461.5,276.5C 461.5,267.167 461.5,257.833 461.5,248.5 Z"/></g>
</svg>
